# xmcd CD database file
#
# Track frame offsets:
#	150
#	10767
#	29181
#	48696
#	67330
#	84297
#	99387
#	114319
#	144989
#
# Disc length: 2499 seconds
#
# Revision: 0
# Processed by: cddbd v1.5PL3 Copyright (c) Steve Scherf et al.
# Submitted via: CDex 1.51
#
DISCID=7709c109
DTITLE=夏木マリ - gorilla
DYEAR=1996
DGENRE=Pop
TTITLE0=私のすべて
TTITLE1=ゴリラ
TTITLE2=ホテル
TTITLE3=告別式
TTITLE4=カウボーイ
TTITLE5=十一月
TTITLE6=動物園にて
TTITLE7=私の青空
TTITLE8=DATA
EXTD=YEAR: 1996
EXTT0=
EXTT1=
EXTT2=
EXTT3=
EXTT4=
EXTT5=
EXTT6=
EXTT7=
EXTT8=
PLAYORDER=
